<svg xmlns="http://www.w3.org/2000/svg" viewBox="0 0 278.67 360.44"><g id="레이어_2"><g id="Layer_1"><g id="TESLA"><g id="g8"><polyline id="polyline10" points="238.08 338.48 238.08 360.39 245.1 360.39 245.1 345.81 270.68 345.81 270.68 360.39 277.7 360.39 277.7 338.52 238.08 338.48" style="fill:#e82127"></polyline><path id="path12" d="M244.32,331.39h27a10,10,0,0,0,7.33-7.26H237a10,10,0,0,0,7.33,7.26" style="fill:#e82127"></path></g><g id="g14"><path id="path16" d="M216.8,360.41a10,10,0,0,0,6.17-7.14H191.46l0-29.12-7.07,0v36.24H216.8" style="fill:#e82127"></path></g><g id="g18"><path id="path20" d="M131.87,331.3h25c3.76-1.1,6.92-4,7.69-7.14H124.88v21.42h32.44v7.51l-25.45,0a14.17,14.17,0,0,0-9.05,7.33l2.06,0h39.41V338.46H131.87V331.3" style="fill:#e82127"></path></g><g id="g22"><path id="path24" d="M70.27,331.37h27a10,10,0,0,0,7.34-7.27H62.94a10,10,0,0,0,7.33,7.27" style="fill:#e82127"></path><path id="path26" d="M70.27,345.69h27a10,10,0,0,0,7.34-7.26H62.94a10,10,0,0,0,7.33,7.26" style="fill:#e82127"></path><path id="path28" d="M70.27,360.4h27a10,10,0,0,0,7.34-7.26H62.94a10,10,0,0,0,7.33,7.26" style="fill:#e82127"></path></g><g id="g30"><path id="path32" d="M0,324.19a10.06,10.06,0,0,0,7.32,7.21H18.69l.58.23v28.69h7.1V331.63l.64-.23H38.39a10.21,10.21,0,0,0,7.29-7.21v-.07H0v.07" style="fill:#e82127"></path></g></g><g id="T"><path id="path35" d="M139.35,252.5,174.83,53c33.81,0,44.48,3.71,46,18.85,0,0,22.68-8.46,34.12-25.64-44.64-20.69-89.5-21.62-89.5-21.62L139.29,56.45h.06L113.17,24.56s-44.86.94-89.5,21.63C35.11,63.36,57.8,71.82,57.8,71.82,59.35,56.69,70,53,103.59,53L139.35,252.5" style="fill:#e82127"></path><path id="path37" d="M139.34,15.36A292.18,292.18,0,0,1,259,39.37c5.66-10.17,7.11-14.66,7.11-14.66A347.18,347.18,0,0,0,139.33,0,347.09,347.09,0,0,0,12.54,24.71a124.61,124.61,0,0,0,7.1,14.66,292.23,292.23,0,0,1,119.69-24h0" style="fill:#e82127"></path></g></g></g></svg>